<svg width="34" height="24" viewBox="0 0 34 24" fill="none" xmlns="http://www.w3.org/2000/svg">
<path d="M0 20.3078C0 21.287 0.38901 22.2262 1.08145 22.9186C1.77389 23.6111 2.71305 24.0001 3.69231 24.0001H29.5385C30.5177 24.0001 31.4569 23.6111 32.1493 22.9186C32.8418 22.2262 33.2308 21.287 33.2308 20.3078V15.6924H0V20.3078Z" fill="#138808"/>
<path d="M33.2308 8.30769V3.69231C33.2308 2.71305 32.8418 1.77389 32.1493 1.08145C31.4569 0.38901 30.5177 0 29.5385 0H3.69231C2.71305 0 1.77389 0.38901 1.08145 1.08145C0.38901 1.77389 0 2.71305 0 3.69231L0 8.30769H33.2308Z" fill="#FFAE5D"/>
<path d="M0 8.00049H33.2308V16.0008H0V8.00049Z" fill="#F7F7F7"/>
<path d="M16.6154 15.6922C18.6546 15.6922 20.3077 14.0391 20.3077 11.9999C20.3077 9.96072 18.6546 8.30762 16.6154 8.30762C14.5762 8.30762 12.9231 9.96072 12.9231 11.9999C12.9231 14.0391 14.5762 15.6922 16.6154 15.6922Z" fill="#000080"/>
<path d="M16.6154 15.1155C18.336 15.1155 19.7308 13.7207 19.7308 12.0002C19.7308 10.2796 18.336 8.88477 16.6154 8.88477C14.8948 8.88477 13.5 10.2796 13.5 12.0002C13.5 13.7207 14.8948 15.1155 16.6154 15.1155Z" fill="#F7F7F7"/>
<path d="M16.7077 10.8459L16.6153 11.4459L16.523 10.8459L16.6153 9.0459L16.7077 10.8459ZM15.851 9.14651L16.2277 10.9087L16.4723 11.4644L16.4058 10.8616L15.851 9.14651ZM15.1384 9.4419L15.9581 11.0462L16.3384 11.5197L16.1187 10.9539L15.1384 9.4419ZM14.5264 9.91082L15.7338 11.2493L16.224 11.6084L15.8649 11.1182L14.5264 9.91082ZM14.0575 10.5228L15.5695 11.5031L16.1353 11.7228L15.6618 11.3425L14.0575 10.5228ZM13.7621 11.2354L15.4772 11.7902L16.08 11.8567L15.5243 11.6121L13.7621 11.2354ZM13.6615 11.9997L15.4615 12.0921L16.0615 11.9997L15.4615 11.9074L13.6615 11.9997ZM13.7621 12.7641L15.5243 12.3874L16.08 12.1428L15.4772 12.2093L13.7621 12.7641ZM14.0575 13.4767L15.6618 12.657L16.1353 12.2767L15.5695 12.4964L14.0575 13.4767ZM14.5264 14.0887L15.8649 12.8813L16.224 12.3911L15.7338 12.7502L14.5264 14.0887ZM15.1384 14.5576L16.1187 13.0456L16.3384 12.4797L15.9581 12.9533L15.1384 14.5576ZM15.851 14.853L16.4058 13.1379L16.4723 12.5351L16.2277 13.0908L15.851 14.853ZM16.6153 14.9536L16.7077 13.1536L16.6153 12.5536L16.523 13.1536L16.6153 14.9536ZM17.3797 14.853L17.003 13.0908L16.7584 12.5351L16.8249 13.1379L17.3797 14.853ZM18.0923 14.5576L17.2726 12.9533L16.8923 12.4797L17.112 13.0456L18.0923 14.5576ZM18.7043 14.0887L17.4969 12.7502L17.0067 12.3911L17.3658 12.8813L18.7043 14.0887ZM19.1732 13.4767L17.6612 12.4964L17.0953 12.2767L17.5689 12.657L19.1732 13.4767ZM19.4686 12.7641L17.7535 12.2093L17.1507 12.1428L17.7064 12.3874L19.4686 12.7641ZM19.5692 11.9997L17.7692 11.9074L17.1692 11.9997L17.7692 12.0921L19.5692 11.9997ZM19.4686 11.2354L17.7064 11.6121L17.1507 11.8567L17.7535 11.7902L19.4686 11.2354ZM19.1732 10.5228L17.5689 11.3425L17.0953 11.7228L17.6612 11.5031L19.1732 10.5228ZM18.7043 9.91082L17.3658 11.1182L17.0067 11.6084L17.4969 11.2493L18.7043 9.91082ZM18.0923 9.4419L17.112 10.9539L16.8923 11.5197L17.2726 11.0462L18.0923 9.4419ZM17.3797 9.14651L16.8249 10.8616L16.7584 11.4644L17.003 10.9087L17.3797 9.14651Z" fill="#6666B3"/>
<path d="M16.2093 9.10068C16.3112 9.10068 16.3939 9.01802 16.3939 8.91606C16.3939 8.8141 16.3112 8.73145 16.2093 8.73145C16.1073 8.73145 16.0247 8.8141 16.0247 8.91606C16.0247 9.01802 16.1073 9.10068 16.2093 9.10068Z" fill="#000080"/>
<path d="M15.4247 9.31112C15.5267 9.31112 15.6093 9.22847 15.6093 9.12651C15.6093 9.02455 15.5267 8.94189 15.4247 8.94189C15.3228 8.94189 15.2401 9.02455 15.2401 9.12651C15.2401 9.22847 15.3228 9.31112 15.4247 9.31112Z" fill="#000080"/>
<path d="M14.7212 9.7164C14.8232 9.7164 14.9059 9.63374 14.9059 9.53178C14.9059 9.42982 14.8232 9.34717 14.7212 9.34717C14.6193 9.34717 14.5366 9.42982 14.5366 9.53178C14.5366 9.63374 14.6193 9.7164 14.7212 9.7164Z" fill="#000080"/>
<path d="M14.1471 10.2906C14.2491 10.2906 14.3318 10.208 14.3318 10.106C14.3318 10.004 14.2491 9.92139 14.1471 9.92139C14.0452 9.92139 13.9625 10.004 13.9625 10.106C13.9625 10.208 14.0452 10.2906 14.1471 10.2906Z" fill="#000080"/>
<path d="M13.7419 10.9937C13.8438 10.9937 13.9265 10.9111 13.9265 10.8091C13.9265 10.7072 13.8438 10.6245 13.7419 10.6245C13.6399 10.6245 13.5573 10.7072 13.5573 10.8091C13.5573 10.9111 13.6399 10.9937 13.7419 10.9937Z" fill="#000080"/>
<path d="M13.5314 11.7784C13.6334 11.7784 13.716 11.6958 13.716 11.5938C13.716 11.4918 13.6334 11.4092 13.5314 11.4092C13.4295 11.4092 13.3468 11.4918 13.3468 11.5938C13.3468 11.6958 13.4295 11.7784 13.5314 11.7784Z" fill="#000080"/>
<path d="M13.5314 12.5909C13.6334 12.5909 13.716 12.5083 13.716 12.4063C13.716 12.3043 13.6334 12.2217 13.5314 12.2217C13.4295 12.2217 13.3468 12.3043 13.3468 12.4063C13.3468 12.5083 13.4295 12.5909 13.5314 12.5909Z" fill="#000080"/>
<path d="M13.7419 13.3756C13.8438 13.3756 13.9265 13.2929 13.9265 13.191C13.9265 13.089 13.8438 13.0063 13.7419 13.0063C13.6399 13.0063 13.5573 13.089 13.5573 13.191C13.5573 13.2929 13.6399 13.3756 13.7419 13.3756Z" fill="#000080"/>
<path d="M14.1471 14.0787C14.2491 14.0787 14.3318 13.996 14.3318 13.8941C14.3318 13.7921 14.2491 13.7095 14.1471 13.7095C14.0452 13.7095 13.9625 13.7921 13.9625 13.8941C13.9625 13.996 14.0452 14.0787 14.1471 14.0787Z" fill="#000080"/>
<path d="M14.7212 14.6529C14.8232 14.6529 14.9059 14.5703 14.9059 14.4683C14.9059 14.3663 14.8232 14.2837 14.7212 14.2837C14.6193 14.2837 14.5366 14.3663 14.5366 14.4683C14.5366 14.5703 14.6193 14.6529 14.7212 14.6529Z" fill="#000080"/>
<path d="M15.4247 15.0582C15.5267 15.0582 15.6093 14.9755 15.6093 14.8736C15.6093 14.7716 15.5267 14.689 15.4247 14.689C15.3228 14.689 15.2401 14.7716 15.2401 14.8736C15.2401 14.9755 15.3228 15.0582 15.4247 15.0582Z" fill="#000080"/>
<path d="M16.2093 15.2686C16.3112 15.2686 16.3939 15.186 16.3939 15.084C16.3939 14.9821 16.3112 14.8994 16.2093 14.8994C16.1073 14.8994 16.0247 14.9821 16.0247 15.084C16.0247 15.186 16.1073 15.2686 16.2093 15.2686Z" fill="#000080"/>
<path d="M17.0215 15.2686C17.1235 15.2686 17.2061 15.186 17.2061 15.084C17.2061 14.9821 17.1235 14.8994 17.0215 14.8994C16.9196 14.8994 16.8369 14.9821 16.8369 15.084C16.8369 15.186 16.9196 15.2686 17.0215 15.2686Z" fill="#000080"/>
<path d="M17.8062 15.0582C17.9082 15.0582 17.9908 14.9755 17.9908 14.8736C17.9908 14.7716 17.9082 14.689 17.8062 14.689C17.7042 14.689 17.6216 14.7716 17.6216 14.8736C17.6216 14.9755 17.7042 15.0582 17.8062 15.0582Z" fill="#000080"/>
<path d="M18.5096 14.6529C18.6115 14.6529 18.6942 14.5703 18.6942 14.4683C18.6942 14.3663 18.6115 14.2837 18.5096 14.2837C18.4076 14.2837 18.325 14.3663 18.325 14.4683C18.325 14.5703 18.4076 14.6529 18.5096 14.6529Z" fill="#000080"/>
<path d="M19.0838 14.0787C19.1857 14.0787 19.2684 13.996 19.2684 13.8941C19.2684 13.7921 19.1857 13.7095 19.0838 13.7095C18.9818 13.7095 18.8992 13.7921 18.8992 13.8941C18.8992 13.996 18.9818 14.0787 19.0838 14.0787Z" fill="#000080"/>
<path d="M19.4889 13.3756C19.5909 13.3756 19.6736 13.2929 19.6736 13.191C19.6736 13.089 19.5909 13.0063 19.4889 13.0063C19.387 13.0063 19.3043 13.089 19.3043 13.191C19.3043 13.2929 19.387 13.3756 19.4889 13.3756Z" fill="#000080"/>
<path d="M19.6994 12.5909C19.8013 12.5909 19.884 12.5083 19.884 12.4063C19.884 12.3043 19.8013 12.2217 19.6994 12.2217C19.5974 12.2217 19.5148 12.3043 19.5148 12.4063C19.5148 12.5083 19.5974 12.5909 19.6994 12.5909Z" fill="#000080"/>
<path d="M19.6994 11.7784C19.8013 11.7784 19.884 11.6958 19.884 11.5938C19.884 11.4918 19.8013 11.4092 19.6994 11.4092C19.5974 11.4092 19.5148 11.4918 19.5148 11.5938C19.5148 11.6958 19.5974 11.7784 19.6994 11.7784Z" fill="#000080"/>
<path d="M19.4889 10.9937C19.5909 10.9937 19.6736 10.9111 19.6736 10.8091C19.6736 10.7072 19.5909 10.6245 19.4889 10.6245C19.387 10.6245 19.3043 10.7072 19.3043 10.8091C19.3043 10.9111 19.387 10.9937 19.4889 10.9937Z" fill="#000080"/>
<path d="M19.0838 10.2906C19.1857 10.2906 19.2684 10.208 19.2684 10.106C19.2684 10.004 19.1857 9.92139 19.0838 9.92139C18.9818 9.92139 18.8992 10.004 18.8992 10.106C18.8992 10.208 18.9818 10.2906 19.0838 10.2906Z" fill="#000080"/>
<path d="M18.5096 9.7164C18.6115 9.7164 18.6942 9.63374 18.6942 9.53178C18.6942 9.42982 18.6115 9.34717 18.5096 9.34717C18.4076 9.34717 18.325 9.42982 18.325 9.53178C18.325 9.63374 18.4076 9.7164 18.5096 9.7164Z" fill="#000080"/>
<path d="M17.8062 9.31112C17.9082 9.31112 17.9908 9.22847 17.9908 9.12651C17.9908 9.02455 17.9082 8.94189 17.8062 8.94189C17.7042 8.94189 17.6216 9.02455 17.6216 9.12651C17.6216 9.22847 17.7042 9.31112 17.8062 9.31112Z" fill="#000080"/>
<path d="M17.0215 9.10068C17.1235 9.10068 17.2061 9.01802 17.2061 8.91606C17.2061 8.8141 17.1235 8.73145 17.0215 8.73145C16.9196 8.73145 16.8369 8.8141 16.8369 8.91606C16.8369 9.01802 16.9196 9.10068 17.0215 9.10068Z" fill="#000080"/>
<path d="M16.6154 12.831C17.0743 12.831 17.4462 12.459 17.4462 12.0002C17.4462 11.5414 17.0743 11.1694 16.6154 11.1694C16.1566 11.1694 15.7847 11.5414 15.7847 12.0002C15.7847 12.459 16.1566 12.831 16.6154 12.831Z" fill="#000080"/>
</svg>
