<svg width="35" height="33" viewBox="0 0 35 33" fill="none" xmlns="http://www.w3.org/2000/svg">
<path d="M26.7751 31.4928L26.75 31.4916L26.7249 31.4917C26.6168 31.4922 26.5101 31.4669 26.4136 31.4181L17.833 26.9259L17.3692 26.6831L16.9054 26.9259L8.31999 31.4206L8.31839 31.4215C8.2052 31.481 8.0776 31.5076 7.95009 31.4982L7.87657 32.4954L7.95008 31.4981C7.82256 31.4888 7.70023 31.4438 7.597 31.3683C7.49377 31.2928 7.41379 31.1899 7.36613 31.0713C7.31848 30.9526 7.30508 30.823 7.32744 30.6971L7.32745 30.697L9.01086 21.2194L9.10369 20.6968L8.72285 20.3271L1.79321 13.5993C1.70735 13.5122 1.64638 13.4037 1.61672 13.2851C1.58738 13.1677 1.58973 13.0447 1.62345 12.9286C1.66368 12.8108 1.73535 12.7061 1.8308 12.626C1.92864 12.5439 2.04756 12.4908 2.17405 12.4728L2.17742 12.4723L11.7729 11.0751L12.2951 10.9991L12.527 10.525L16.7524 1.88913L16.7541 1.88552C16.8101 1.76997 16.8975 1.67253 17.0063 1.60435C17.115 1.53616 17.2408 1.5 17.3692 1.5C17.4976 1.5 17.6234 1.53616 17.7322 1.60435C17.8409 1.67253 17.9283 1.76997 17.9843 1.88552L17.9842 1.88554L17.9885 1.89404L22.2643 10.5131L22.4973 10.9827L23.016 11.0583L32.6115 12.4555L32.6149 12.456C32.7414 12.474 32.8603 12.527 32.9581 12.6092C33.0536 12.6893 33.1252 12.7939 33.1655 12.9118C33.1992 13.0278 33.2015 13.1508 33.1722 13.2682C33.1425 13.3869 33.0816 13.4954 32.9957 13.5824L26.0661 20.3102L25.6852 20.68L25.7781 21.2026L27.4615 30.6802L27.4614 30.6802L27.4637 30.6924C27.4881 30.8205 27.4753 30.9529 27.4269 31.074C27.3791 31.1935 27.2985 31.297 27.1946 31.3727C27.0716 31.4575 26.9243 31.4997 26.7751 31.4928Z" stroke="#FFAE5D" stroke-width="2"/>
</svg>
